<svg width="10" height="10" viewBox="0 0 10 10" fill="none" xmlns="http://www.w3.org/2000/svg">
<g id="cancel (2) 1" clip-path="url(#clip0_1724_4163)">
<g id="Group">
<g id="Group_2">
<path id="Vector" d="M8.5377 1.46402C6.58795 -0.485727 3.41447 -0.485727 1.46472 1.46402C0.520259 2.40885 0 3.66478 0 5.0005C0 6.33621 0.520259 7.59214 1.46472 8.53661C2.43979 9.51167 3.7205 9.999 5.0012 9.999C6.2819 9.999 7.56263 9.51167 8.53768 8.53661C10.4874 6.58686 10.4874 3.41413 8.5377 1.46402ZM7.98992 7.98883C6.34196 9.63679 3.66045 9.63679 2.01248 7.98883C1.21446 7.19081 0.774773 6.12936 0.774773 5.0005C0.774773 3.87164 1.21446 2.81018 2.01248 2.01178C3.66045 0.363812 6.34196 0.364203 7.98992 2.01178C9.6375 3.65974 9.6375 6.34125 7.98992 7.98883Z" fill="#D73939"/>
</g>
</g>
<g id="Group_3">
<g id="Group_4">
<path id="Vector_2" d="M6.67022 6.07097L5.57351 4.97583L6.67022 3.88069C6.8213 3.72961 6.8213 3.4844 6.67062 3.33291C6.51915 3.18105 6.27393 3.18145 6.12247 3.33252L5.02499 4.42844L3.92752 3.33252C3.77606 3.18145 3.53084 3.18105 3.37937 3.33291C3.2283 3.48438 3.2283 3.72959 3.37976 3.88069L4.47647 4.97583L3.37976 6.07097C3.2283 6.22205 3.2283 6.46727 3.37937 6.61875C3.45492 6.69467 3.55447 6.73225 3.65365 6.73225C3.75283 6.73225 3.85199 6.69428 3.92754 6.61912L5.02501 5.5232L6.12248 6.61912C6.19803 6.69467 6.29719 6.73225 6.39637 6.73225C6.49555 6.73225 6.59511 6.69428 6.67065 6.61875C6.82169 6.46727 6.82169 6.22205 6.67022 6.07097Z" fill="#D73939"/>
</g>
</g>
</g>
<defs>
<clipPath id="clip0_1724_4163">
<rect width="10" height="10" fill="white"/>
</clipPath>
</defs>
</svg>
