<svg width="30" height="30" viewBox="0 0 30 30" fill="none" xmlns="http://www.w3.org/2000/svg">
<path d="M0 8C0 3.58172 3.58172 0 8 0H30V22C30 26.4183 26.4183 30 22 30H8C3.58172 30 0 26.4183 0 22V8Z" fill="#3184CA"/>
<path d="M8.53165 11.3215C10.3845 12.8906 13.6356 15.6512 14.5911 16.512C14.7194 16.6282 14.857 16.6872 14.9998 16.6872C15.1424 16.6872 15.2797 16.6287 15.4077 16.5131C16.3641 15.6515 19.6152 12.8906 21.468 11.3215C21.5834 11.224 21.601 11.0526 21.5076 10.9334C21.2917 10.6579 20.9698 10.5 20.6248 10.5H9.37484C9.02988 10.5 8.70796 10.6579 8.4921 10.9334C8.3987 11.0526 8.41629 11.224 8.53165 11.3215Z" fill="white"/>
<path d="M21.5869 12.1716C21.4872 12.1252 21.3699 12.1414 21.2869 12.2123C19.2322 13.9541 16.6098 16.1869 15.7847 16.9303C15.3216 17.3484 14.6789 17.3484 14.2147 16.9298C13.3353 16.1374 10.3904 13.6339 8.71306 12.2122C8.62956 12.1414 8.51201 12.1257 8.41313 12.1716C8.31373 12.2177 8.25 12.3172 8.25 12.4268V19.4998C8.25 20.1202 8.75454 20.6248 9.37501 20.6248H20.625C21.2455 20.6248 21.75 20.1202 21.75 19.4998V12.4268C21.75 12.3172 21.6863 12.2175 21.5869 12.1716Z" fill="white"/>
</svg>
