<svg width="28" height="28" viewBox="0 0 28 28" fill="none" xmlns="http://www.w3.org/2000/svg">
<path d="M26.1116 21.7846L21.7196 17.3925L18.3413 15.9968C19.4662 14.3972 20.0688 12.4888 20.0666 10.5333C20.0666 5.27661 15.79 1 10.5333 1C5.27661 1 1 5.27661 1 10.5333C1 15.79 5.27661 20.0666 10.5333 20.0666C12.5059 20.0689 14.43 19.4558 16.0377 18.3129L17.4297 21.682L21.8216 26.0743C22.1033 26.356 22.4377 26.5794 22.8057 26.7319C23.1737 26.8843 23.5682 26.9628 23.9665 26.9628C24.3649 26.9628 24.7593 26.8844 25.1274 26.7319C25.4954 26.5795 25.8298 26.3561 26.1115 26.0744C26.3932 25.7928 26.6166 25.4584 26.7691 25.0903C26.9215 24.7223 27 24.3279 27 23.9295C27 23.5312 26.9216 23.1367 26.7691 22.7687C26.6167 22.4007 26.3933 22.0662 26.1116 21.7846ZM2.73333 10.5333C2.73333 6.23249 6.23249 2.73333 10.5333 2.73333C14.8341 2.73333 18.3333 6.23249 18.3333 10.5333C18.3333 14.8341 14.8341 18.3333 10.5333 18.3333C6.23249 18.3333 2.73333 14.8341 2.73333 10.5333ZM24.8859 24.8487C24.6419 25.0921 24.3113 25.2288 23.9666 25.2288C23.6219 25.2288 23.2913 25.0921 23.0474 24.8487L18.8997 20.701L17.6055 17.5683L20.7383 18.8626L24.886 23.0102C25.1294 23.2542 25.2661 23.5848 25.2661 23.9294C25.266 24.2741 25.1293 24.6047 24.8859 24.8487Z" fill="white" stroke="white" stroke-width="0.6"/>
</svg>
