<svg width="25" height="25" viewBox="0 0 25 25" fill="none" xmlns="http://www.w3.org/2000/svg">
<path d="M24.3554 18.6079C24.4213 18.2497 24.3997 17.842 24.2882 17.4177C23.5576 14.6354 21.3714 8.93901 19.5546 6.59289C19.0779 5.97725 18.1595 6.03043 17.627 6.59289C17.3927 6.84065 17.2626 7.15622 17.2348 7.47981C17.0922 7.34034 16.9113 7.24405 16.7116 7.21649C16.7116 7.21649 12.1038 6.6095 12.0479 6.61721H9.95248C9.26967 6.61721 9.06984 7.03579 9.06984 7.55029V14.6615H7.53194V7.0356C7.53194 6.65833 7.24155 6.35135 6.88467 6.35135H0.647266C0.290387 6.35135 0 6.65833 0 7.0356C0 7.0356 0.00223601 17.7439 0.00223601 18.4365C0.00223601 19.2322 0.612372 19.8771 1.36497 19.8771H2.70222C2.63314 20.1745 2.59577 20.485 2.59577 20.8046C2.59577 22.9509 4.24783 24.697 6.27842 24.697C8.30889 24.697 9.96083 22.9509 9.96083 20.8046C9.96083 20.485 9.92341 20.1745 9.85439 19.8771H13.9758V20.8316C13.9758 21.5862 14.5565 22.2001 15.2704 22.2001H15.2951C15.6404 22.2001 15.9645 22.057 16.2077 21.7973C16.451 21.5374 16.583 21.1934 16.5795 20.8285L16.5703 19.8771H17.7414C17.6723 20.1745 17.6349 20.485 17.6349 20.8046C17.6349 22.9509 19.287 24.697 21.3176 24.697C23.3481 24.697 25 22.9509 25 20.8046C24.9999 19.9901 24.7616 19.2336 24.3554 18.6079ZM21.3175 19.3355C22.0837 19.3355 22.7071 19.9946 22.7071 20.8046C22.7071 21.6146 22.0837 22.2737 21.3175 22.2737C20.5509 22.2737 19.9273 21.6146 19.9273 20.8046C19.9273 19.9946 20.5509 19.3355 21.3175 19.3355ZM7.66798 20.8046C7.66798 21.6146 7.04461 22.2737 6.27836 22.2737C5.51182 22.2737 4.88821 21.6146 4.88821 20.8046C4.88821 19.9946 5.51182 19.3355 6.27836 19.3355C7.04461 19.3355 7.66798 19.9946 7.66798 20.8046ZM16.5218 14.8712C16.5145 14.1183 15.9292 13.5059 15.217 13.5059H13.063V8.85591L14.1163 8.99269C14.202 9.40915 14.5522 9.72117 14.9718 9.72117H18.6587L18.9445 12.2382L16.5286 15.5819L16.5218 14.8712Z" fill="#6AAC4B"/>
<path d="M10.7462 5.61969C12.1739 5.61969 13.3354 4.39182 13.3354 2.88247C13.3354 2.69057 13.3164 2.50327 13.2807 2.32238L13.8487 2.31056C14.1871 2.30347 14.552 2.0544 14.6972 1.73112L14.8878 1.30725C14.9783 1.10589 14.9736 0.89564 14.8747 0.730361C14.776 0.565206 14.5986 0.470468 14.3862 0.470468L11.9794 0.476377C11.6125 0.265377 11.1924 0.145508 10.7462 0.145508C9.31847 0.145508 8.15698 1.37331 8.15698 2.8826C8.15704 4.39182 9.31853 5.61969 10.7462 5.61969Z" fill="#6AAC4B"/>
</svg>
