<svg width="25" height="25" viewBox="0 0 25 25" fill="none" xmlns="http://www.w3.org/2000/svg">
<g id="Icon">
<path id="Vector" d="M24.0456 4.31189L8.73419 0.886405C8.08639 0.741521 7.4443 1.18334 7.30725 1.86816L7.01636 3.84438L24.6831 7.79659L24.974 5.82037C25.1111 5.13581 24.6934 4.45682 24.0456 4.31189Z" fill="#6AAC4B"/>
<path id="Vector_2" d="M17.6068 8.21572C17.428 7.53488 16.7549 7.13244 16.1111 7.3212L13.2044 8.17422L6.35214 6.64117L5.59854 10.4053L0.889973 11.7869C0.246173 11.9757 -0.13451 12.6872 0.044046 13.3678L2.6976 23.4764C2.87644 24.157 3.54953 24.5597 4.19333 24.3706L19.4145 19.9052C20.0583 19.7162 20.4389 19.0049 20.2604 18.324L19.8049 16.5887L21.512 16.9703C22.1598 17.1154 22.8019 16.6736 22.9389 15.9888L24.019 10.5934L17.8699 9.21786L17.6068 8.21572ZM19.3647 13.3533L19.7411 11.4725C19.7976 11.1909 20.0618 11.0093 20.3281 11.0687L22.1072 11.467C22.3738 11.5267 22.5457 11.8056 22.4894 12.0875L22.113 13.9683C22.0564 14.2499 21.7923 14.4318 21.526 14.3721L19.7469 13.9741C19.48 13.9141 19.3081 13.6349 19.3647 13.3533ZM1.15485 12.7957L5.36712 11.5603L15.3059 8.64463L16.3754 8.33051C16.395 8.32494 16.4145 8.3223 16.4335 8.3223C16.5193 8.3223 16.6219 8.38181 16.6518 8.49577L16.7774 8.97383L17.1708 10.4725L1.51751 15.0646L0.998512 13.0881C0.965995 12.9641 1.03756 12.83 1.15485 12.7957ZM19.3059 18.6037C19.3259 18.6804 19.3049 18.7439 19.2836 18.7836C19.2626 18.8232 19.2221 18.8751 19.1495 18.8962L3.9287 23.3616C3.90946 23.3672 3.88969 23.3701 3.87065 23.3701C3.78487 23.3701 3.68229 23.3103 3.65231 23.1963L2.10457 17.3002L17.7579 12.7079L18.7126 16.3443L19.3059 18.6037Z" fill="#6AAC4B"/>
<path id="Vector_3" d="M6.38785 19.0073C6.31481 18.7296 6.04066 18.5657 5.77803 18.6426L4.00041 19.1643C3.73802 19.2413 3.58271 19.5313 3.65575 19.809L4.14898 21.6878C4.22202 21.9655 4.49617 22.1294 4.7588 22.0522L6.53643 21.5308C6.79906 21.4538 6.95412 21.1638 6.88133 20.8861L6.38785 19.0073Z" fill="#6AAC4B"/>
</g>
</svg>
