<svg width="26" height="27" viewBox="0 0 26 27" fill="none" xmlns="http://www.w3.org/2000/svg">
<path d="M24.4464 11.2685L13.8078 1.481C13.4619 1.16281 13.0065 0.990611 12.5366 1.0004C12.0668 1.01018 11.6189 1.20119 11.2866 1.5335L1.50213 11.318L1 11.8201V26.2444H10.4286V17.2444H15.5714V26.2444H25V11.7779L24.4464 11.2685ZM12.5735 2.71432C12.5886 2.71432 12.5793 2.71758 12.5728 2.72396C12.5661 2.71758 12.5584 2.71432 12.5735 2.71432ZM23.2857 24.5302H17.2857V17.2444C17.2857 16.7898 17.1051 16.3538 16.7836 16.0323C16.4621 15.7108 16.0261 15.5302 15.5714 15.5302H10.4286C9.97392 15.5302 9.53788 15.7108 9.21639 16.0323C8.8949 16.3538 8.71429 16.7898 8.71429 17.2444V24.5302H2.71429L2.71429 12.5302L12.5735 2.74566L12.5748 2.74378L23.2857 12.5302V24.5302Z" fill="white" stroke="white" stroke-width="0.6"/>
</svg>
