<svg width="23" height="22" viewBox="0 0 23 22" fill="none" xmlns="http://www.w3.org/2000/svg">
<path d="M11.7823 0C8.79204 0 8.41937 0.0144393 7.24909 0.0639455C6.07401 0.121703 5.27916 0.303913 4.57782 0.576197C3.85448 0.859482 3.23841 1.23559 2.62989 1.84754C2.01725 2.45606 1.63771 3.07213 1.35855 3.79547C1.08626 4.49681 0.904051 5.29166 0.846294 6.46675C0.79335 7.6377 0.782349 8.00969 0.782349 11C0.782349 13.9903 0.796788 14.363 0.846294 15.5333C0.904051 16.7049 1.08626 17.5032 1.35855 18.2045C1.64183 18.9279 2.01794 19.5439 2.62989 20.1525C3.23841 20.7651 3.85448 21.1446 4.57782 21.4238C5.27916 21.6926 6.07745 21.8783 7.24909 21.9361C8.42005 21.989 8.79204 22 11.7823 22C14.7727 22 15.1453 21.9856 16.3156 21.9361C17.4872 21.8783 18.2855 21.692 18.9869 21.4238C19.7102 21.1405 20.3263 20.7644 20.9348 20.1525C21.5474 19.5439 21.927 18.9313 22.2062 18.2045C22.475 17.5032 22.6606 16.7049 22.7184 15.5333C22.7713 14.3623 22.7823 13.9903 22.7823 11C22.7823 8.00969 22.7679 7.63702 22.7184 6.46675C22.6606 5.2951 22.4743 4.49269 22.2062 3.79547C21.9229 3.07213 21.5468 2.45606 20.9348 1.84754C20.3263 1.2349 19.7137 0.855357 18.9869 0.576197C18.2855 0.303913 17.4872 0.121703 16.3156 0.0639455C15.1446 0.0110014 14.7727 0 11.7823 0ZM11.7823 1.98025C14.719 1.98025 15.0697 1.99469 16.2303 2.04419C17.3009 2.09439 17.884 2.27316 18.2711 2.42443C18.7875 2.62452 19.1485 2.86105 19.539 3.24747C19.922 3.63045 20.1585 3.99556 20.3586 4.51194C20.5099 4.89905 20.6886 5.48212 20.7388 6.55269C20.7883 7.71334 20.8028 8.0647 20.8028 11.0007C20.8028 13.9367 20.7883 14.288 20.7347 15.4487C20.677 16.5193 20.4982 17.1023 20.3476 17.4894C20.1393 18.0058 19.9069 18.3668 19.5232 18.7573C19.1361 19.1403 18.7675 19.3769 18.2553 19.5769C17.873 19.7282 17.2817 19.907 16.207 19.9572C15.0401 20.0067 14.6963 20.0211 11.7521 20.0211C8.80785 20.0211 8.46475 20.0067 7.29654 19.9531C6.22597 19.8953 5.63533 19.7165 5.24822 19.5659C4.72565 19.3576 4.36742 19.1252 3.98375 18.7415C3.59664 18.3544 3.35048 17.9859 3.16071 17.4736C3.00669 17.0913 2.83067 16.5 2.7736 15.4253C2.73441 14.2722 2.71584 13.9147 2.71584 10.9842C2.71584 8.05507 2.73441 7.69684 2.7736 6.52932C2.83067 5.45462 3.00669 4.86467 3.16071 4.481C3.35048 3.95774 3.59733 3.6002 3.98375 3.21309C4.36673 2.8301 4.72565 2.58257 5.24822 2.38867C5.63533 2.23809 6.21153 2.05932 7.28622 2.00569C8.45306 1.96375 8.79685 1.94862 11.737 1.94862L11.7823 1.98025ZM11.7823 5.35423C8.66002 5.35423 6.13521 7.88249 6.13521 11.0014C6.13521 14.1237 8.66346 16.6485 11.7823 16.6485C14.9047 16.6485 17.4295 14.1203 17.4295 11.0014C17.4295 7.87905 14.9012 5.35423 11.7823 5.35423ZM11.7823 14.6683C9.75535 14.6683 8.11545 13.0284 8.11545 11.0014C8.11545 8.97437 9.75535 7.33448 11.7823 7.33448C13.8094 7.33448 15.4492 8.97437 15.4492 11.0014C15.4492 13.0284 13.8094 14.6683 11.7823 14.6683ZM18.9772 5.1287C18.9772 5.85961 18.3825 6.44956 17.655 6.44956C16.9241 6.44956 16.3342 5.85892 16.3342 5.1287C16.3342 4.40193 16.9282 3.8106 17.655 3.8106C18.3818 3.8106 18.9772 4.40193 18.9772 5.1287Z" fill="#3A0CA3"/>
</svg>
