<svg width="6" height="6" viewBox="0 0 6 6" fill="none" xmlns="http://www.w3.org/2000/svg">
<g id="next 3">
<g id="Group">
<g id="Group_2">
<path id="Vector" d="M3.23412 4.66679L5.90415 1.99671C5.96595 1.93496 6 1.85252 6 1.76462C6 1.67672 5.96595 1.59428 5.90415 1.53252L5.70756 1.33589C5.57947 1.20794 5.37127 1.20794 5.24337 1.33589L3.00124 3.57802L0.756628 1.3334C0.694824 1.27165 0.612434 1.23755 0.524581 1.23755C0.436631 1.23755 0.354241 1.27165 0.292387 1.3334L0.0958529 1.53003C0.0340486 1.59184 0 1.67423 0 1.76213C0 1.85003 0.0340486 1.93247 0.0958529 1.99423L2.76832 4.66679C2.83032 4.72869 2.9131 4.76269 3.0011 4.7625C3.08944 4.76269 3.17217 4.72869 3.23412 4.66679Z" fill="#373737"/>
</g>
</g>
</g>
</svg>
