<svg width="12" height="12" viewBox="0 0 12 12" fill="none" xmlns="http://www.w3.org/2000/svg">
<path d="M6.46824 9.33352L11.8083 3.99337C11.9319 3.86985 12 3.70498 12 3.52917C12 3.35337 11.9319 3.18849 11.8083 3.06498L11.4151 2.67172C11.1589 2.41582 10.7425 2.41582 10.4867 2.67172L6.00249 7.15597L1.51326 2.66674C1.38965 2.54323 1.22487 2.47504 1.04916 2.47504C0.873261 2.47504 0.708482 2.54323 0.584775 2.66674L0.191706 3.06001C0.0680971 3.18362 0 3.3484 0 3.5242C0 3.7 0.0680971 3.86488 0.191706 3.98839L5.53664 9.33352C5.66064 9.45732 5.8262 9.52532 6.00219 9.52493C6.17888 9.52532 6.34434 9.45732 6.46824 9.33352Z" fill="#373737"/>
</svg>
