<svg width="14" height="14" viewBox="0 0 14 14" fill="none" xmlns="http://www.w3.org/2000/svg">
<g clip-path="url(#clip0_3918_233)">
<path d="M7.00003 0.25C4.30412 0.25 2.11084 2.44328 2.11084 5.13916C2.11084 8.48484 6.48618 13.3965 6.67247 13.604C6.84744 13.7988 7.15293 13.7985 7.32759 13.604C7.51387 13.3965 11.8892 8.48484 11.8892 5.13916C11.8892 2.44328 9.69591 0.25 7.00003 0.25ZM7.00003 7.59904C5.64365 7.59904 4.54018 6.49554 4.54018 5.13916C4.54018 3.78278 5.64367 2.67931 7.00003 2.67931C8.35638 2.67931 9.45985 3.78281 9.45985 5.13919C9.45985 6.49557 8.35638 7.59904 7.00003 7.59904Z" fill="white"/>
</g>
<defs>
<clipPath id="clip0_3918_233">
<rect width="13.5" height="13.5" fill="white" transform="translate(0.25 0.25)"/>
</clipPath>
</defs>
</svg>
