<svg width="26" height="27" viewBox="0 0 26 27" fill="none" xmlns="http://www.w3.org/2000/svg">
<g id="service (1) 1" clip-path="url(#clip0_176_2245)">
<g id="Group">
<g id="Group_2">
<g id="Group_3">
<path id="Vector" d="M6.14068 20.644C7.46277 20.644 8.53454 19.5484 8.53454 18.1969C8.53454 16.8455 7.46277 15.7499 6.14068 15.7499C4.81859 15.7499 3.74683 16.8455 3.74683 18.1969C3.74683 19.5484 4.81859 20.644 6.14068 20.644Z" fill="#6AAC4B"/>
<path id="Vector_2" d="M20.1513 14.5214C20.2837 14.153 20.3515 13.7636 20.3515 13.371C20.3509 11.5283 18.8891 10.035 17.0865 10.0356C16.7032 10.0357 16.323 10.1048 15.9631 10.2398V16.5019C17.6547 17.1372 19.5298 16.2505 20.1513 14.5214Z" fill="#6AAC4B"/>
<path id="Vector_3" d="M10.1928 7.04718L7.16686 11.1086C7.09193 11.2085 6.98704 11.2804 6.86825 11.3135L1.8054 12.7269C1.09668 12.9251 0.603938 13.5816 0.600098 14.3327V16.2217C0.60743 17.1407 1.34102 17.8802 2.24004 17.875H2.64325C2.81029 15.9005 4.51162 14.4382 6.44318 14.6091C8.14304 14.7594 9.49109 16.1373 9.63809 17.875H14.8459V6.09656H12.0692C11.3333 6.09898 10.6403 6.45012 10.1928 7.04718Z" fill="#6AAC4B"/>
<path id="Vector_4" d="M24.126 12.384C23.8827 12.3605 23.6817 12.1799 23.6278 11.9363C23.4555 11.1222 23.1363 10.348 22.6867 9.65336C22.5499 9.44342 22.5641 9.16659 22.7216 8.97235L23.6587 7.81486L22.5189 6.63488L21.3914 7.58957C21.2039 7.74869 20.9372 7.76518 20.7323 7.63033C20.0486 7.17304 19.2895 6.84596 18.4919 6.665C18.2547 6.61375 18.0773 6.41109 18.0538 6.16438L17.9126 4.66888H15.9632V9.04381C18.3013 8.40949 20.6997 9.83268 21.3203 12.2228C21.9408 14.6128 20.5485 17.0645 18.2104 17.6989C17.4741 17.8987 16.6995 17.8987 15.9631 17.6989V22.0866H17.9126L18.0541 20.5845C18.0773 20.3369 18.2543 20.1329 18.4921 20.08C19.2886 19.9038 20.0461 19.5775 20.7257 19.1178C20.9311 18.978 21.202 18.9926 21.3919 19.1535L22.522 20.1101L23.6812 18.9251L22.7455 17.77C22.5903 17.5779 22.5747 17.3053 22.707 17.0962C23.1552 16.3975 23.4762 15.6216 23.6543 14.806C23.7068 14.563 23.9066 14.3821 24.149 14.3583L25.6001 14.214V12.5286L24.126 12.384Z" fill="#6AAC4B"/>
</g>
</g>
</g>
</g>
<defs>
<clipPath id="clip0_176_2245">
<rect width="25" height="25.5556" fill="white" transform="translate(0.600098 0.599976)"/>
</clipPath>
</defs>
</svg>
