<svg width="24" height="24" viewBox="0 0 24 24" fill="none" xmlns="http://www.w3.org/2000/svg">
<g id="shield (1) 1" clip-path="url(#clip0_176_2256)">
<g id="Group">
<g id="Group_2">
<path id="Vector" d="M21.35 6.72017C21.3233 6.11508 21.3233 5.53751 21.3233 4.95993C21.3233 4.49236 20.976 4.13482 20.5217 4.13482C17.182 4.13482 14.6438 3.14468 12.5331 1.02689C12.2125 0.724353 11.7316 0.724353 11.4109 1.02689C9.30022 3.14468 6.76202 4.13482 3.42228 4.13482C2.96808 4.13482 2.62074 4.49236 2.62074 4.95993C2.62074 5.53751 2.62074 6.11508 2.59403 6.72017C2.48715 12.496 2.32685 20.417 11.7048 23.745L11.972 23.8L12.2392 23.745C21.5905 20.417 21.4569 12.5235 21.35 6.72017ZM11.3308 14.7238C11.1705 14.8613 10.9834 14.9438 10.7697 14.9438H10.743C10.5292 14.9438 10.3155 14.8338 10.1819 14.6687L7.69715 11.8359L8.89945 10.7357L10.8499 12.9635L15.1782 8.72794L16.2736 9.9381L11.3308 14.7238Z" fill="#6AAC4B"/>
</g>
</g>
</g>
<defs>
<clipPath id="clip0_176_2256">
<rect width="22.3429" height="23" fill="white" transform="translate(0.800049 0.799988)"/>
</clipPath>
</defs>
</svg>
