<svg width="23" height="23" viewBox="0 0 23 23" fill="none" xmlns="http://www.w3.org/2000/svg">
<g clip-path="url(#clip0_3857_2336)">
<path d="M17.0513 16.98C15.6114 16.98 14.4241 18.1421 14.4241 19.6072C14.4241 21.0471 15.5861 22.2344 17.0513 22.2344C18.4912 22.2344 19.6785 21.0724 19.6785 19.6072C19.6532 18.1673 18.4912 16.98 17.0513 16.98Z" fill="white"/>
<path d="M21.6742 4.45034C21.6236 4.45034 21.5479 4.42508 21.4721 4.42508H5.5573L5.30468 2.73255C5.15311 1.62105 4.19317 0.787415 3.0564 0.787415H1.01022C0.454464 0.787415 -0.000244141 1.24212 -0.000244141 1.79788C-0.000244141 2.35363 0.454464 2.80834 1.01022 2.80834H3.0564C3.18271 2.80834 3.28376 2.90939 3.30902 3.03569L4.87524 13.6961C5.07733 15.0349 6.23936 16.0454 7.60348 16.0454H18.1123C19.4259 16.0454 20.5627 15.1107 20.8405 13.8224L22.4825 5.61237C22.5836 5.08188 22.2299 4.55139 21.6742 4.45034Z" fill="white"/>
<path d="M10.6097 19.4809C10.5592 18.0916 9.39718 16.98 8.00779 16.98C6.54262 17.0558 5.43111 18.2684 5.48164 19.7083C5.53216 21.0977 6.66893 22.2092 8.05831 22.2092H8.10884C9.54875 22.1334 10.6855 20.9209 10.6097 19.4809Z" fill="white"/>
</g>
<defs>
<clipPath id="clip0_3857_2336">
<rect width="22.5" height="22.5" fill="white" transform="translate(-0.000244141 0.260986)"/>
</clipPath>
</defs>
</svg>
