<svg width="18" height="18" viewBox="0 0 18 18" fill="none" xmlns="http://www.w3.org/2000/svg">
<g clip-path="url(#clip0_3857_4260)">
<path d="M13.6411 13.3752C12.4891 13.3752 11.5393 14.3049 11.5393 15.477C11.5393 16.6289 12.4689 17.5788 13.6411 17.5788C14.793 17.5788 15.7428 16.6491 15.7428 15.477C15.7226 14.3251 14.793 13.3752 13.6411 13.3752Z" fill="white"/>
<path d="M17.3395 3.35148C17.2991 3.35148 17.2385 3.33127 17.1779 3.33127H4.44603L4.24394 1.97725C4.12269 1.08805 3.35473 0.421143 2.44532 0.421143H0.80837C0.363766 0.421143 0 0.784909 0 1.22951C0 1.67412 0.363766 2.03788 0.80837 2.03788H2.44532C2.54636 2.03788 2.6272 2.11872 2.64741 2.21977L3.90038 10.7481C4.06206 11.8192 4.99168 12.6275 6.08298 12.6275H14.49C15.5409 12.6275 16.4503 11.8798 16.6726 10.8491L17.9862 4.28111C18.0671 3.85671 17.7841 3.43232 17.3395 3.35148Z" fill="white"/>
<path d="M8.48808 15.376C8.44766 14.2644 7.51803 13.3752 6.40653 13.3752C5.23439 13.4359 4.34518 14.4059 4.3856 15.5578C4.42602 16.6693 5.33544 17.5586 6.44695 17.5586H6.48736C7.63929 17.4979 8.54871 16.5279 8.48808 15.376Z" fill="white"/>
</g>
<defs>
<clipPath id="clip0_3857_4260">
<rect width="18" height="18" fill="white"/>
</clipPath>
</defs>
</svg>
