<svg width="53" height="53" viewBox="0 0 53 53" fill="none" xmlns="http://www.w3.org/2000/svg">
<path d="M-0.000244141 8.26099C-0.000244141 3.84271 3.58148 0.260986 7.99976 0.260986H52.4998V44.761C52.4998 49.1793 48.918 52.761 44.4998 52.761H7.99975C3.58148 52.761 -0.000244141 49.1793 -0.000244141 44.761V8.26099Z" fill="#3184CA"/>
<g clip-path="url(#clip0_176_2218)">
<path d="M32.0513 31.98C30.6114 31.98 29.4241 33.1421 29.4241 34.6072C29.4241 36.0471 30.5861 37.2344 32.0513 37.2344C33.4912 37.2344 34.6785 36.0724 34.6785 34.6072C34.6532 33.1673 33.4912 31.98 32.0513 31.98Z" fill="white"/>
<path d="M36.6742 19.4503C36.6236 19.4503 36.5479 19.4251 36.4721 19.4251H20.5573L20.3047 17.7326C20.1531 16.621 19.1932 15.7874 18.0564 15.7874H16.0102C15.4545 15.7874 14.9998 16.2421 14.9998 16.7979C14.9998 17.3536 15.4545 17.8083 16.0102 17.8083H18.0564C18.1827 17.8083 18.2838 17.9094 18.309 18.0357L19.8752 28.6961C20.0773 30.0349 21.2394 31.0454 22.6035 31.0454H33.1123C34.4259 31.0454 35.5627 30.1107 35.8405 28.8224L37.4825 20.6124C37.5836 20.0819 37.2299 19.5514 36.6742 19.4503Z" fill="white"/>
<path d="M25.6097 34.4809C25.5592 33.0916 24.3972 31.98 23.0078 31.98C21.5426 32.0558 20.4311 33.2684 20.4816 34.7083C20.5322 36.0977 21.6689 37.2092 23.0583 37.2092H23.1088C24.5487 37.1334 25.6855 35.9209 25.6097 34.4809Z" fill="white"/>
</g>
<defs>
<clipPath id="clip0_176_2218">
<rect width="22.5" height="22.5" fill="white" transform="translate(14.9998 15.261)"/>
</clipPath>
</defs>
</svg>
