<svg width="14" height="14" viewBox="0 0 14 14" fill="none" xmlns="http://www.w3.org/2000/svg">
<g clip-path="url(#clip0_3918_217)">
<path d="M13.7207 10.71C13.6825 10.595 13.4396 10.4255 12.9921 10.202C12.8709 10.1315 12.6981 10.0358 12.4746 9.9143C12.2509 9.79283 12.0478 9.6809 11.8657 9.57861C11.6833 9.47636 11.5124 9.37729 11.3527 9.28154C11.3272 9.26237 11.2473 9.20652 11.1131 9.11363C10.9787 9.02101 10.8654 8.95227 10.7726 8.90744C10.6799 8.86287 10.5888 8.84044 10.4993 8.84044C10.3715 8.84044 10.2118 8.93158 10.0201 9.11363C9.82844 9.29592 9.6526 9.49392 9.49289 9.70824C9.33314 9.92246 9.16371 10.1205 8.98492 10.3026C8.80586 10.4849 8.65874 10.5759 8.54382 10.5759C8.48612 10.5759 8.41419 10.5599 8.32799 10.5281C8.24181 10.4962 8.17626 10.4688 8.13126 10.4467C8.08666 10.4242 8.01013 10.3796 7.90139 10.3123C7.79245 10.2452 7.73187 10.2084 7.71911 10.202C6.84345 9.71607 6.09245 9.15994 5.46597 8.53374C4.8397 7.90716 4.28351 7.15622 3.79774 6.28047C3.79136 6.26767 3.75452 6.20692 3.68745 6.09832C3.62029 5.98961 3.57553 5.91301 3.55316 5.86814C3.53079 5.82345 3.50363 5.75789 3.47172 5.67162C3.43982 5.58535 3.4238 5.51348 3.4238 5.45589C3.4238 5.3409 3.51491 5.19381 3.69709 5.01482C3.87924 4.83593 4.07745 4.66647 4.2915 4.50679C4.50572 4.3471 4.70372 4.17127 4.88594 3.97958C5.06809 3.78779 5.15916 3.62807 5.15916 3.50026C5.15916 3.41083 5.1368 3.31965 5.0921 3.227C5.04737 3.13415 4.97866 3.02084 4.88594 2.88654C4.79318 2.75231 4.73727 2.67249 4.71806 2.6468C4.62228 2.48712 4.52332 2.31615 4.42093 2.13396C4.31853 1.95181 4.20677 1.74878 4.08527 1.52508C3.96387 1.30149 3.86806 1.12885 3.79767 1.00741C3.57408 0.560065 3.40473 0.317064 3.28964 0.278847C3.24487 0.259672 3.17771 0.25 3.08831 0.25C2.91563 0.25 2.69036 0.281903 2.41234 0.345911C2.13421 0.409818 1.91535 0.476848 1.75554 0.54727C1.43593 0.681431 1.09719 1.07132 0.739202 1.71681C0.413219 2.31753 0.250244 2.9121 0.250244 3.50009C0.250244 3.67254 0.261427 3.84031 0.283793 4.00345C0.306159 4.16643 0.346121 4.35023 0.403715 4.55481C0.461208 4.75932 0.507585 4.91125 0.542645 5.01018C0.577738 5.10918 0.643257 5.28653 0.739168 5.54229C0.834945 5.79799 0.892538 5.95452 0.911714 6.01204C1.13541 6.63849 1.40067 7.19773 1.70745 7.68995C2.21219 8.50808 2.90099 9.35358 3.77346 10.2261C4.64596 11.0986 5.49129 11.7874 6.30949 12.2923C6.80164 12.599 7.36109 12.8643 7.98743 13.0881C8.04499 13.1072 8.20152 13.1647 8.45711 13.2608C8.7128 13.3566 8.89022 13.4221 8.98922 13.4573C9.08825 13.4925 9.24021 13.5389 9.44456 13.5965C9.64935 13.6541 9.83297 13.6941 9.99595 13.7166C10.159 13.7386 10.3268 13.75 10.4993 13.75C11.0873 13.75 11.6819 13.587 12.2827 13.261C12.9281 12.9032 13.3179 12.5643 13.4521 12.2445C13.5227 12.0849 13.5896 11.8659 13.6535 11.5878C13.7176 11.3098 13.7494 11.0846 13.7494 10.9119C13.7496 10.8222 13.74 10.7552 13.7207 10.71Z" fill="white"/>
</g>
<defs>
<clipPath id="clip0_3918_217">
<rect width="13.5" height="13.5" fill="white" transform="translate(0.25 0.25)"/>
</clipPath>
</defs>
</svg>
