<svg xmlns="http://www.w3.org/2000/svg" height="16" width="16" viewBox="0 0 512 512"><!--!Font Awesome Free 6.5.1 by @fontawesome - https://fontawesome.com License - https://fontawesome.com/license/free Copyright 2024 Fonticons, Inc.--><path opacity="1" fill="#1E3050" d="M149.3 216v80c0 13.3-10.7 24-24 24H24c-13.3 0-24-10.7-24-24v-80c0-13.3 10.7-24 24-24h101.3c13.3 0 24 10.7 24 24zM0 376v80c0 13.3 10.7 24 24 24h101.3c13.3 0 24-10.7 24-24v-80c0-13.3-10.7-24-24-24H24c-13.3 0-24 10.7-24 24zM125.3 32H24C10.7 32 0 42.7 0 56v80c0 13.3 10.7 24 24 24h101.3c13.3 0 24-10.7 24-24V56c0-13.3-10.7-24-24-24zm80 448H488c13.3 0 24-10.7 24-24v-80c0-13.3-10.7-24-24-24H205.3c-13.3 0-24 10.7-24 24v80c0 13.3 10.7 24 24 24zm-24-424v80c0 13.3 10.7 24 24 24H488c13.3 0 24-10.7 24-24V56c0-13.3-10.7-24-24-24H205.3c-13.3 0-24 10.7-24 24zm24 264H488c13.3 0 24-10.7 24-24v-80c0-13.3-10.7-24-24-24H205.3c-13.3 0-24 10.7-24 24v80c0 13.3 10.7 24 24 24z"/></svg>