<svg width="10" height="6" viewBox="0 0 10 6" fill="none" xmlns="http://www.w3.org/2000/svg">
<path id="Vector" d="M4.6098 0.222039L0.159755 4.67216C0.0567475 4.77509 0 4.91249 0 5.05899C0 5.20549 0.0567475 5.34289 0.159755 5.44582L0.487394 5.77354C0.700889 5.98679 1.04788 5.98679 1.26105 5.77354L4.99793 2.03666L8.73895 5.77768C8.84196 5.88061 8.97928 5.93744 9.1257 5.93744C9.27228 5.93744 9.4096 5.88061 9.51269 5.77768L9.84025 5.44996C9.94325 5.34696 10 5.20964 10 5.06314C10 4.91663 9.94325 4.77924 9.84025 4.67631L5.38614 0.222039C5.2828 0.118869 5.14484 0.0622029 4.99817 0.0625281C4.85094 0.0622029 4.71305 0.118869 4.6098 0.222039Z" fill="#373737"/>
</svg>
