<svg width="4" height="7" viewBox="0 0 4 7" fill="none" xmlns="http://www.w3.org/2000/svg">
<path d="M3.89139 3.13863L0.861476 0.108771C0.791398 0.0386372 0.697849 0 0.598101 0C0.498353 0 0.404805 0.0386372 0.334726 0.108771L0.111594 0.331848C-0.0335999 0.477208 -0.0335999 0.713459 0.111594 0.858598L2.65589 3.40289L0.108771 5.95001C0.0386925 6.02015 0 6.11364 0 6.21333C0 6.31314 0.0386925 6.40663 0.108771 6.47682L0.331903 6.69984C0.402037 6.76997 0.49553 6.80861 0.595278 6.80861C0.695026 6.80861 0.788575 6.76997 0.858653 6.69984L3.89139 3.66721C3.96164 3.59685 4.00022 3.50292 4 3.40306C4.00022 3.30281 3.96164 3.20893 3.89139 3.13863Z" fill="#373737"/>
</svg>
