<svg width="12" height="12" viewBox="0 0 12 12" fill="none" xmlns="http://www.w3.org/2000/svg">
<path d="M11.8962 11.3877L8.97939 8.47152C9.79048 7.54211 10.2368 6.35008 10.2355 5.11664C10.2355 2.29357 7.94013 0 5.11777 0C2.29541 0 0 2.2959 0 5.11664C0 7.93737 2.29541 10.2333 5.11777 10.2333C6.35159 10.2345 7.54398 9.78831 8.47373 8.9774L11.3906 11.8923C11.4576 11.9596 11.5484 11.9978 11.6434 11.9987C11.6905 11.9988 11.7372 11.9895 11.7807 11.9712C11.8241 11.9529 11.8634 11.9261 11.8962 11.8923C11.9627 11.8249 12 11.734 12 11.6393C12 11.5446 11.9627 11.4538 11.8962 11.3864V11.3877ZM0.715903 5.11664C0.715903 2.6887 2.69062 0.718404 5.11511 0.718404C7.5396 0.718404 9.51432 2.69269 9.51432 5.11664C9.51432 7.54059 7.54226 9.51753 5.11511 9.51753C2.68796 9.51753 0.715903 7.54325 0.715903 5.11664Z" fill="#C5C5C5"/>
</svg>
