<?xml version="1.0" encoding="UTF-8" standalone="no"?>
<svg
   xmlns:dc="http://purl.org/dc/elements/1.1/"
   xmlns:cc="http://creativecommons.org/ns#"
   xmlns:rdf="http://www.w3.org/1999/02/22-rdf-syntax-ns#"
   xmlns:svg="http://www.w3.org/2000/svg"
   xmlns="http://www.w3.org/2000/svg"
   xmlns:sodipodi="http://sodipodi.sourceforge.net/DTD/sodipodi-0.dtd"
   xmlns:inkscape="http://www.inkscape.org/namespaces/inkscape"
   viewBox="0 -256 1792 1792"
   id="svg4047"
   version="1.1"
   inkscape:version="0.48.3.1 r9886"
   width="100%"
   height="100%"
   sodipodi:docname="th_large_font_awesome.svg">
  <metadata
     id="metadata4057">
    <rdf:RDF>
      <cc:Work
         rdf:about="">
        <dc:format>image/svg+xml</dc:format>
        <dc:type
           rdf:resource="http://purl.org/dc/dcmitype/StillImage" />
      </cc:Work>
    </rdf:RDF>
  </metadata>
  <defs
     id="defs4055" />
  <sodipodi:namedview
     pagecolor="#ffffff"
     bordercolor="#666666"
     borderopacity="1"
     objecttolerance="10"
     gridtolerance="10"
     guidetolerance="10"
     inkscape:pageopacity="0"
     inkscape:pageshadow="2"
     inkscape:window-width="640"
     inkscape:window-height="480"
     id="namedview4053"
     showgrid="false"
     inkscape:zoom="0.13169643"
     inkscape:cx="896"
     inkscape:cy="896"
     inkscape:window-x="0"
     inkscape:window-y="25"
     inkscape:window-maximized="0"
     inkscape:current-layer="svg4047" />
  <g
     transform="matrix(1,0,0,-1,68.338983,1384.1356)"
     id="g4049">
    <path
       d="M 768,512 V 128 Q 768,76 730,38 692,0 640,0 H 128 Q 76,0 38,38 0,76 0,128 v 384 q 0,52 38,90 38,38 90,38 h 512 q 52,0 90,-38 38,-38 38,-90 z m 0,768 V 896 q 0,-52 -38,-90 -38,-38 -90,-38 H 128 Q 76,768 38,806 0,844 0,896 v 384 q 0,52 38,90 38,38 90,38 h 512 q 52,0 90,-38 38,-38 38,-90 z M 1664,512 V 128 q 0,-52 -38,-90 -38,-38 -90,-38 h -512 q -52,0 -90,38 -38,38 -38,90 v 384 q 0,52 38,90 38,38 90,38 h 512 q 52,0 90,-38 38,-38 38,-90 z m 0,768 V 896 q 0,-52 -38,-90 -38,-38 -90,-38 h -512 q -52,0 -90,38 -38,38 -38,90 v 384 q 0,52 38,90 38,38 90,38 h 512 q 52,0 90,-38 38,-38 38,-90 z"
       id="path4051"
       inkscape:connector-curvature="0"
       style="fill:currentColor" />
  </g>
</svg>
